<?xml version="1.0" standalone="no"?>
<!DOCTYPE svg PUBLIC "-//W3C//DTD SVG 20010904//EN"
 "http://www.w3.org/TR/2001/REC-SVG-20010904/DTD/svg10.dtd">
<svg version="1.0" xmlns="http://www.w3.org/2000/svg"
 width="500.000000pt" height="500.000000pt" viewBox="0 0 500.000000 500.000000"
 preserveAspectRatio="xMidYMid meet">
<metadata>
Created by potrace 1.14, written by Peter Selinger 2001-2017
</metadata>
<g transform="translate(0.000000,500.000000) scale(0.100000,-0.100000)"
fill="#000000" stroke="none">
<path d="M0 2500 l0 -2500 2500 0 2500 0 0 2500 0 2500 -2500 0 -2500 0 0
-2500z m2600 1125 c62 -22 124 -77 154 -137 21 -42 26 -66 26 -127 -1 -120
-51 -205 -152 -255 -74 -37 -182 -37 -256 0 -59 29 -107 80 -134 142 -25 56
-22 177 6 234 61 127 221 191 356 143z m-760 -935 c0 -87 1 -90 19 -80 36 19
98 12 128 -14 27 -23 28 -29 31 -125 l4 -101 -46 0 -46 0 0 79 c0 59 -4 84
-16 95 -19 20 -24 20 -52 0 -20 -13 -22 -24 -22 -95 l0 -79 -45 0 -45 0 0 205
0 205 45 0 45 0 0 -90z m-161 69 c35 -12 38 -26 16 -70 -13 -24 -19 -28 -35
-19 -24 13 -91 13 -124 0 -63 -24 -83 -124 -35 -176 39 -42 87 -50 161 -28 25
8 59 -63 38 -77 -58 -37 -157 -34 -227 7 -143 84 -131 277 22 357 35 19 138
22 184 6z m705 -5 c19 -18 21 -55 4 -72 -7 -7 -24 -12 -38 -12 -14 0 -31 5
-38 12 -28 28 -2 88 38 88 10 0 26 -7 34 -16z m567 6 c23 -13 26 -62 5 -79
-46 -38 -111 25 -71 69 20 22 37 25 66 10z m-161 -95 c0 -41 2 -45 25 -45 22
0 25 -4 25 -35 0 -31 -3 -35 -25 -35 -23 0 -25 -3 -25 -50 0 -44 3 -52 24 -60
21 -8 44 -55 32 -67 -2 -3 -22 -7 -43 -10 -32 -4 -45 0 -68 20 -26 22 -30 32
-33 96 -3 52 -8 71 -18 71 -9 0 -14 12 -14 35 0 24 5 35 15 35 11 0 15 12 15
45 l0 45 45 0 45 0 0 -45z m-640 -60 c0 -8 4 -15 9 -15 5 0 14 7 21 15 14 17
85 21 95 5 3 -5 -1 -22 -9 -37 -12 -23 -21 -28 -52 -28 -50 0 -66 -28 -62
-113 l3 -62 -42 0 -43 0 0 125 0 125 40 0 c29 0 40 -4 40 -15z m240 -110 l0
-125 -42 0 -43 0 1 113 c1 61 2 118 3 125 1 7 16 12 41 12 l40 0 0 -125z m238
116 c10 -6 11 -13 2 -33 -11 -23 -16 -25 -56 -20 -24 2 -44 0 -44 -5 0 -5 23
-20 52 -34 61 -28 78 -61 56 -106 -25 -52 -130 -68 -183 -29 -18 13 -18 17 -5
40 9 18 19 25 29 20 9 -4 28 -9 44 -12 38 -6 36 23 -2 36 -69 24 -91 83 -46
127 20 21 34 25 82 25 32 0 64 -4 71 -9z m333 -86 c1 -52 1 -107 2 -122 1 -26
-2 -28 -41 -31 l-42 -3 0 125 0 126 40 0 40 0 1 -95z m152 83 c4 -10 7 -10 18
0 16 15 80 16 112 1 37 -17 47 -50 47 -149 l0 -90 -45 0 -45 0 0 85 c0 75 -2
86 -21 95 -16 9 -26 8 -45 -5 -22 -14 -24 -22 -24 -95 l0 -80 -45 0 -45 0 0
118 c0 65 3 122 7 125 11 12 81 7 86 -5z m390 1 c16 -9 22 -9 25 0 2 6 21 11
43 11 l39 0 0 -125 0 -125 -39 0 c-22 0 -41 5 -43 10 -2 7 -16 5 -36 -6 -94
-46 -197 56 -162 161 23 71 110 107 173 74z m-553 -644 l0 -205 -45 0 c-25 0
-45 4 -45 10 0 5 -16 2 -35 -7 -32 -15 -40 -16 -77 -3 -134 48 -105 250 37
250 20 0 45 -5 56 -10 18 -10 19 -7 19 80 l0 90 45 0 45 0 0 -205z m-1110 115
l0 -80 60 0 59 0 3 78 3 77 45 0 45 0 3 -197 2 -198 -50 0 -50 0 0 80 0 80
-60 0 -60 0 0 -80 0 -80 -47 0 -48 0 3 200 3 200 44 0 45 0 0 -80z m433 -81
c16 -9 22 -9 25 0 2 6 21 11 43 11 l39 0 0 -125 0 -125 -39 0 c-22 0 -41 5
-43 11 -2 6 -14 5 -33 -5 -37 -20 -56 -20 -101 -1 -26 11 -40 26 -55 61 -27
60 -19 106 26 151 27 27 41 33 75 33 23 0 51 -5 63 -11z m257 -6 c0 -15 1 -15
18 0 11 10 36 17 60 17 46 0 51 -9 30 -55 -10 -22 -16 -24 -43 -19 -51 9 -65
-13 -65 -102 l0 -74 -45 0 -45 0 0 125 0 125 45 0 c35 0 45 -4 45 -17z m568
-43 c19 -33 35 -60 37 -60 2 0 16 27 31 60 l27 60 48 0 c27 0 49 -2 49 -3 0
-7 -155 -304 -177 -339 -20 -33 -28 -38 -61 -38 -21 0 -42 3 -45 6 -4 4 12 41
35 84 l42 76 -57 102 c-31 56 -57 104 -57 107 0 3 21 5 48 5 l47 0 33 -60z
m-1400 -458 c4 -29 18 -28 26 3 9 35 24 31 34 -7 10 -34 12 -32 28 20 2 6 10
12 17 12 12 0 12 -9 -1 -55 -11 -41 -20 -55 -34 -55 -11 0 -18 7 -18 20 0 11
-4 20 -9 20 -5 0 -11 -9 -14 -20 -10 -38 -33 -21 -49 36 -14 51 -14 55 1 52 9
-2 17 -13 19 -26z m212 18 c0 -5 -9 -10 -20 -10 -11 0 -20 -4 -20 -10 0 -5 7
-10 15 -10 8 0 15 -7 15 -15 0 -8 -7 -15 -15 -15 -8 0 -15 -4 -15 -10 0 -5 9
-10 20 -10 11 0 20 -4 20 -10 0 -5 -16 -10 -35 -10 l-35 0 0 55 0 55 35 0 c19
0 35 -4 35 -10z m96 -21 c1 -14 4 -31 8 -37 13 -22 -6 -42 -40 -42 l-34 0 0
56 0 55 33 -3 c27 -2 32 -7 33 -29z m165 21 c23 -13 26 -62 3 -84 -8 -9 -29
-16 -45 -16 -29 0 -29 1 -29 55 0 52 1 55 26 55 14 0 34 -5 45 -10z m119 0 c0
-5 -9 -10 -20 -10 -11 0 -20 -4 -20 -10 0 -5 9 -10 20 -10 11 0 20 -7 20 -15
0 -8 -9 -15 -20 -15 -11 0 -20 -4 -20 -10 0 -5 9 -10 20 -10 11 0 20 -4 20
-10 0 -5 -15 -10 -34 -10 l-35 0 0 55 0 55 35 0 c19 0 34 -4 34 -10z m64 -22
l14 -33 12 33 c7 17 19 32 27 32 8 0 13 -6 10 -12 -31 -80 -41 -98 -51 -98 -6
0 -21 25 -33 55 -17 44 -18 55 -7 55 8 0 20 -15 28 -32z m156 23 c0 -5 -10
-12 -22 -16 l-23 -8 23 -4 c12 -2 22 -11 22 -18 0 -7 -10 -16 -22 -18 l-23 -4
23 -8 c32 -11 27 -25 -8 -25 -30 0 -30 1 -30 55 0 54 0 55 30 55 17 0 30 -4
30 -9z m60 -36 c0 -38 3 -45 20 -45 11 0 20 -4 20 -10 0 -5 -15 -10 -33 -10
l-34 0 -2 55 c-1 43 2 55 14 55 11 0 15 -11 15 -45z m162 28 c36 -33 10 -93
-42 -93 -35 0 -50 17 -50 57 0 49 54 71 92 36z m118 2 c16 -19 6 -45 -20 -52
-11 -3 -20 -14 -20 -24 0 -11 -7 -19 -15 -19 -12 0 -15 13 -15 55 0 54 1 55
29 55 16 0 34 -7 41 -15z m82 -12 l11 -28 10 28 c6 16 18 27 29 27 15 0 18 -9
18 -55 0 -30 -4 -55 -10 -55 -5 0 -10 9 -10 20 0 11 -4 20 -9 20 -5 0 -11 -9
-14 -20 -7 -28 -21 -25 -34 8 l-11 27 -1 -27 c-1 -19 -6 -28 -17 -28 -13 0
-15 7 -10 31 3 17 6 42 6 55 0 33 28 31 42 -3z m168 17 c0 -5 -9 -10 -20 -10
-11 0 -20 -4 -20 -10 0 -5 9 -10 20 -10 11 0 20 -7 20 -15 0 -8 -9 -15 -20
-15 -11 0 -20 -4 -20 -10 0 -5 9 -10 20 -10 11 0 20 -4 20 -10 0 -5 -16 -10
-35 -10 l-35 0 0 55 0 55 35 0 c19 0 35 -4 35 -10z m79 -22 l21 -33 0 33 c0
22 5 32 15 32 12 0 15 -13 15 -55 0 -65 -19 -74 -50 -22 l-20 32 0 -32 c0 -23
-5 -33 -15 -33 -12 0 -15 13 -15 55 0 65 17 73 49 23z m151 22 c0 -5 -4 -10
-10 -10 -5 0 -10 -20 -10 -45 0 -33 -4 -45 -15 -45 -11 0 -15 12 -15 45 0 33
-4 45 -15 45 -8 0 -15 5 -15 10 0 6 18 10 40 10 22 0 40 -4 40 -10z"/>
<path d="M2416 3600 c-46 -14 -91 -50 -127 -103 -29 -43 -34 -59 -37 -123 -4
-65 -1 -81 23 -130 92 -187 354 -188 449 -1 67 130 13 288 -119 348 -43 20
-138 24 -189 9z m139 -41 c59 -16 104 -55 131 -113 40 -87 27 -166 -40 -232
-88 -89 -225 -84 -303 11 -97 117 -50 279 94 331 47 16 67 17 118 3z"/>
<path d="M2447 3528 c-49 -13 -113 -85 -122 -137 -8 -46 8 -109 35 -144 26
-32 97 -67 138 -67 38 0 97 23 126 48 27 24 56 91 56 132 0 42 -35 111 -70
138 -24 19 -93 43 -115 41 -5 -1 -27 -6 -48 -11z m150 -82 c28 -31 33 -43 33
-87 0 -46 -4 -55 -39 -90 -35 -35 -44 -39 -91 -39 -47 0 -56 4 -91 39 -33 32
-39 45 -39 80 0 89 59 145 144 138 42 -4 55 -10 83 -41z"/>
<path d="M2429 3431 c-64 -65 -20 -171 71 -171 33 0 48 6 71 29 64 65 20 171
-71 171 -33 0 -48 -6 -71 -29z m117 -37 c37 -55 -25 -117 -80 -80 -49 31 -24
106 35 106 20 0 34 -8 45 -26z"/>
<path d="M2474 3376 c-10 -26 4 -48 28 -44 17 2 23 10 23 28 0 18 -6 26 -23
28 -13 2 -25 -3 -28 -12z"/>
<path d="M3436 2537 c-21 -16 -24 -60 -6 -82 19 -23 66 -19 84 7 21 30 20 44
-4 68 -23 23 -49 26 -74 7z"/>
<path d="M2766 1918 c-31 -44 -9 -88 43 -88 36 0 51 17 51 57 0 52 -64 74 -94
31z"/>
<path d="M2206 1927 c-21 -15 -25 -60 -6 -82 20 -25 67 -19 87 11 15 24 15 29
2 53 -17 30 -55 38 -83 18z"/>
<path d="M1970 1440 c0 -5 5 -10 10 -10 6 0 10 5 10 10 0 6 -4 10 -10 10 -5 0
-10 -4 -10 -10z"/>
<path d="M2130 1465 c0 -26 3 -33 15 -29 8 4 15 16 15 29 0 13 -7 25 -15 29
-12 4 -15 -3 -15 -29z"/>
<path d="M2683 1493 c-7 -3 -13 -15 -13 -28 0 -24 16 -35 38 -28 6 3 12 15 12
28 0 24 -16 35 -37 28z"/>
<path d="M2810 1484 c0 -8 5 -12 10 -9 6 3 10 10 10 16 0 5 -4 9 -10 9 -5 0
-10 -7 -10 -16z"/>
</g>
</svg>
